<?xml version="1.0" encoding="utf-8"?>
<!-- Generator: Adobe Illustrator 23.0.3, SVG Export Plug-In . SVG Version: 6.00 Build 0)  -->
<svg version="1.1" id="Layer_1" xmlns="http://www.w3.org/2000/svg" xmlns:xlink="http://www.w3.org/1999/xlink" x="0px" y="0px"
	 viewBox="0 0 504 288" style="enable-background:new 0 0 504 288;" xml:space="preserve">
<style type="text/css">
	.st0{clip-path:url(#SVGID_3_);fill:url(#SVGID_4_);}
	.st1{clip-path:url(#SVGID_3_);fill:#636363;}
	.st2{clip-path:url(#SVGID_3_);fill:url(#SVGID_5_);}
	.st3{clip-path:url(#SVGID_3_);}
	.st4{fill:#FFFFFF;}
	.st5{fill:url(#SVGID_6_);}
	.st6{fill:url(#SVGID_7_);}
	.st7{fill:url(#SVGID_8_);}
	.st8{fill:url(#SVGID_9_);}
	.st9{fill:url(#SVGID_10_);}
	.st10{fill:url(#SVGID_11_);}
	.st11{fill:url(#SVGID_12_);}
	.st12{fill:url(#SVGID_13_);}
	.st13{fill:url(#SVGID_14_);}
	.st14{fill:url(#SVGID_15_);}
</style>
<g>
	<g>
		<defs>
			<rect id="SVGID_1_" y="0" width="504" height="288"/>
		</defs>
		<linearGradient id="SVGID_2_" gradientUnits="userSpaceOnUse" x1="0" y1="144" x2="504" y2="144">
			<stop  offset="0" style="stop-color:#FE9700"/>
			<stop  offset="1" style="stop-color:#FFE263"/>
		</linearGradient>
		<use xlink:href="#SVGID_1_"  style="overflow:visible;fill:url(#SVGID_2_);"/>
		<clipPath id="SVGID_3_">
			<use xlink:href="#SVGID_1_"  style="overflow:visible;"/>
		</clipPath>
		<linearGradient id="SVGID_4_" gradientUnits="userSpaceOnUse" x1="93.8925" y1="112.6522" x2="54.2074" y2="-3.0014">
			<stop  offset="0" style="stop-color:#FE8900"/>
			<stop  offset="1" style="stop-color:#FE5500"/>
		</linearGradient>
		<path class="st0" d="M189.5-44c-6.8-1.1-13.6-2.1-20.4-3.1c-47-6.8-46.9-46.5-74.8-44.5c-18.5,1.3-32.9,30.9-46,14.2
			c-29.1-37.2-62-14.2-71.2,16.3c-4.7,15.5-2.4,25.2-3,46.9C-27,19-66.3,10-97.8,29.3c-29.8,18.3-30.5,50.8-8.8,67.3
			c34,25.8,71.7-6.9,101.1,19.1c52.5,46.6,59.4,15.7,100.5-3.2c35.7-16.5,59.6,4,92.6,3.2c26.8,0.9,47.3-8.8,62.9-28.9
			C290.3,35.3,252.6-33.3,189.5-44z"/>
		<path class="st1" d="M335.1-283.2c-55.7,25.7-60.7,80.8-111.4,53c-15.1-8.3-26.5-17.7-41-20.8c-41.5-8.8-53.7,51-91.8,45.8
			c-24.3-3.4-60.9-13.5-91.1,21.2c-15.5,17.8-16.2,38.8-17.9,64.3C-21.6-66.4-65.5-50.5-79.9,7c-12.3,49.1,11.8,87.5,53,94.7
			c47.4,8.4,81.1-19.8,132.6-44.6c45.3-21.8,74.6,12.1,128,22.6c36.9,7.3,68.1-11.7,90.1-42C352.6-1.8,355.5-36.6,360.3-78
			c5.3-45.8,29-66.5,47.7-89.4C465.5-237.9,395.2-310.9,335.1-283.2z"/>
		<linearGradient id="SVGID_5_" gradientUnits="userSpaceOnUse" x1="384.1502" y1="124.2799" x2="443.1108" y2="295.4926">
			<stop  offset="0" style="stop-color:#FE8900"/>
			<stop  offset="1" style="stop-color:#FE5500"/>
		</linearGradient>
		<path class="st2" d="M476.8,154.5c-14.1,3-14.8-2.4-42.6-20.7c-29.3-19.3-73.5-6.5-86.9,34.2c-4.6,13.9-4.7,25.1-7.8,41.2
			c-4.9,25.3-22,32.6-36.6,40.8c-16,8.9-58.3,26.1-49.6,77.8c5,29.9,27.3,52.8,59.9,50.3c17.8-1.4,34-8.8,51-15.2
			c59.3-22.5,56.7-18,119.3-10.9c0.1-1.7,2.5,0,11.5-0.8c42-3.8,46.5-37.1,53.1-74.2c9.8-55.5,46.7-59.4,54.7-91
			c2.5-9.9-1.2-23.4-13.7-33.4C553.6,124.1,501.9,149.2,476.8,154.5z"/>
		<path class="st1" d="M450.8,155.6c-55.7,25.7-60.7,80.8-111.4,53c-15.1-8.3-26.5-17.7-41-20.8c-41.5-8.8-53.7,51-91.8,45.8
			c-24.3-3.4-60.9-13.5-91.1,21.2c-15.5,17.8-16.2,38.8-17.9,64.3c-3.6,53.3-47.4,69.2-61.8,126.7c-12.3,49.1,11.8,87.5,53,94.7
			c47.4,8.4,81.1-19.8,132.6-44.6c45.3-21.8,74.6,12.1,128,22.6c36.9,7.3,68.1-11.7,90.1-42c28.8-39.6,31.6-74.3,36.5-115.8
			c5.3-45.8,29-66.5,47.7-89.4C581.2,200.9,510.8,127.9,450.8,155.6z"/>
		<g class="st3">
			<path class="st4" d="M-35,179.4c-2.5-26.6,6.3-54.7,23.7-75.1C6,83.9,32.3,70.7,59,68.9c27.4-1.8,54.2,7.6,80.1,16.7
				c27.4,9.6,55.7,19.5,84.5,16c20.6-2.5,40-11.7,58.7-20.6c22.2-10.5,45.1-21.4,69.7-20.9c8.4,0.2,16.8,1.7,24.9,3.1
				c11.3,2,23,4.1,34.5,2.5c17-2.3,33.5-12.5,46.5-28.7c11-13.8,18.4-29.8,26-49.5c4.3-11.1,8.3-22.8,7.2-34.6
				c-1.1-11.2-8.4-23.6-20.5-25.9l0.1-0.5c12.3,2.3,19.8,15,20.9,26.3c1.1,11.8-2.9,23.7-7.2,34.8c-7.6,19.8-15,35.8-26.1,49.7
				c-13.1,16.4-29.7,26.6-46.9,28.9c-11.6,1.5-23.3-0.5-34.6-2.5c-8.1-1.4-16.5-2.9-24.9-3.1c-24.5-0.5-47.4,10.4-69.5,20.9
				c-18.8,8.9-38.2,18.1-58.9,20.6c-4,0.5-8,0.7-12.1,0.7c-24.7,0-49-8.5-72.6-16.8C113.1,77,86.3,67.6,59,69.4
				c-26.6,1.8-52.7,14.9-70,35.2c-17.3,20.3-26.1,48.2-23.5,74.7L-35,179.4z"/>
		</g>
		<g class="st3">
			<path class="st4" d="M82.8,356.9c-3.6-15-0.7-31,8.4-46.2c8.4-14,21.3-25.8,36.2-33.3c29.5-14.9,63.3-15.8,96-16.6
				c29.3-0.8,65.8-1.7,95.6-17.5c6.1-3.2,12.1-7.2,17.9-10.9c12-7.8,24.4-15.9,38.6-18.3c16.9-2.8,33.7,2.8,49.9,8.2
				c6.7,2.3,13.7,4.6,20.6,6.3c51,12.6,109.7-12,136.6-57l0.4,0.3c-13.2,22-34.3,40-59.5,50.5c-25.2,10.5-52.8,12.9-77.7,6.8
				c-6.9-1.7-13.9-4-20.7-6.3c-16.1-5.4-32.9-11-49.6-8.2c-14.1,2.4-26.5,10.4-38.4,18.3c-5.8,3.8-11.8,7.7-17.9,11
				c-29.9,15.8-66.4,16.7-95.8,17.5c-32.6,0.9-66.4,1.8-95.8,16.6c-27.4,13.8-52.3,46.2-44.3,79L82.8,356.9z"/>
		</g>
		<g class="st3">
			<g>
				<path class="st4" d="M0,120.4c-26.4,0-51.3-10.3-69.9-28.9S-98.9,48-98.9,21.5c0-26.4,10.3-51.3,28.9-69.9
					C-51.3-67.1-26.4-77.4,0-77.4s51.3,10.3,69.9,28.9C88.6-29.7,98.9-4.9,98.9,21.5c0,26.4-10.3,51.3-28.9,69.9S26.4,120.4,0,120.4
					z M0-76.9c-54.3,0-98.4,44.1-98.4,98.4c0,54.3,44.1,98.4,98.4,98.4c54.3,0,98.4-44.1,98.4-98.4C98.4-32.7,54.3-76.9,0-76.9z"/>
			</g>
			<g>
				<path class="st4" d="M0,108.1c-47.7,0-86.6-38.8-86.6-86.6C-86.6-26.2-47.7-65,0-65c47.7,0,86.6,38.8,86.6,86.6
					C86.6,69.3,47.7,108.1,0,108.1z M0-64.5c-47.5,0-86.1,38.6-86.1,86.1c0,47.5,38.6,86.1,86.1,86.1S86.1,69,86.1,21.5
					C86.1-25.9,47.5-64.5,0-64.5z"/>
			</g>
			<g>
				<path class="st4" d="M0,95.8c-40.9,0-74.2-33.3-74.2-74.2c0-40.9,33.3-74.2,74.2-74.2c40.9,0,74.2,33.3,74.2,74.2
					C74.2,62.5,40.9,95.8,0,95.8z M0-52.2c-40.7,0-73.7,33.1-73.7,73.7c0,40.7,33.1,73.7,73.7,73.7s73.7-33.1,73.7-73.7
					C73.7-19.1,40.7-52.2,0-52.2z"/>
			</g>
			<g>
				<path class="st4" d="M0,83.4c-34.1,0-61.9-27.8-61.9-61.9c0-34.1,27.8-61.9,61.9-61.9s61.9,27.8,61.9,61.9
					C61.9,55.7,34.1,83.4,0,83.4z M0-39.9c-33.9,0-61.4,27.5-61.4,61.4c0,33.9,27.5,61.4,61.4,61.4s61.4-27.5,61.4-61.4
					C61.4-12.3,33.9-39.9,0-39.9z"/>
			</g>
			<g>
				<path class="st4" d="M0,71.1c-27.3,0-49.6-22.2-49.6-49.6C-49.6-5.8-27.3-28,0-28S49.6-5.8,49.6,21.5
					C49.6,48.9,27.3,71.1,0,71.1z M0-27.5c-27.1,0-49.1,22-49.1,49.1c0,27.1,22,49.1,49.1,49.1c27.1,0,49.1-22,49.1-49.1
					C49.1-5.5,27.1-27.5,0-27.5z"/>
			</g>
		</g>
		<g class="st3">
			<g>
				<path class="st4" d="M519.7,395c-26.4,0-51.3-10.3-69.9-28.9c-18.7-18.7-28.9-43.5-28.9-69.9s10.3-51.3,28.9-69.9
					c18.7-18.7,43.5-28.9,69.9-28.9s51.3,10.3,69.9,28.9c18.7,18.7,28.9,43.5,28.9,69.9s-10.3,51.3-28.9,69.9
					C571,384.7,546.2,395,519.7,395z M519.7,197.7c-54.3,0-98.4,44.1-98.4,98.4s44.1,98.4,98.4,98.4c54.3,0,98.4-44.1,98.4-98.4
					S574,197.7,519.7,197.7z"/>
			</g>
			<g>
				<path class="st4" d="M519.7,382.7c-47.7,0-86.6-38.8-86.6-86.6c0-47.7,38.8-86.6,86.6-86.6c47.7,0,86.6,38.8,86.6,86.6
					C606.3,343.8,567.5,382.7,519.7,382.7z M519.7,210c-47.5,0-86.1,38.6-86.1,86.1c0,47.5,38.6,86.1,86.1,86.1
					c47.5,0,86.1-38.6,86.1-86.1C605.8,248.6,567.2,210,519.7,210z"/>
			</g>
			<g>
				<path class="st4" d="M519.7,370.3c-40.9,0-74.2-33.3-74.2-74.2c0-40.9,33.3-74.2,74.2-74.2s74.2,33.3,74.2,74.2
					C594,337,560.7,370.3,519.7,370.3z M519.7,222.4c-40.7,0-73.7,33.1-73.7,73.7c0,40.7,33.1,73.7,73.7,73.7
					c40.7,0,73.7-33.1,73.7-73.7C593.5,255.4,560.4,222.4,519.7,222.4z"/>
			</g>
			<g>
				<path class="st4" d="M519.7,358c-34.1,0-61.9-27.8-61.9-61.9s27.8-61.9,61.9-61.9s61.9,27.8,61.9,61.9S553.9,358,519.7,358z
					 M519.7,234.7c-33.9,0-61.4,27.5-61.4,61.4c0,33.9,27.5,61.4,61.4,61.4c33.9,0,61.4-27.5,61.4-61.4
					C581.1,262.2,553.6,234.7,519.7,234.7z"/>
			</g>
			<g>
				<path class="st4" d="M519.7,345.7c-27.3,0-49.6-22.2-49.6-49.6c0-27.3,22.2-49.6,49.6-49.6c27.3,0,49.6,22.2,49.6,49.6
					C569.3,323.4,547.1,345.7,519.7,345.7z M519.7,247c-27.1,0-49.1,22-49.1,49.1c0,27.1,22,49.1,49.1,49.1s49.1-22,49.1-49.1
					C568.8,269,546.8,247,519.7,247z"/>
			</g>
		</g>
	</g>
	<g>
		<linearGradient id="SVGID_6_" gradientUnits="userSpaceOnUse" x1="44.1505" y1="78.1813" x2="158.148" y2="78.1813">
			<stop  offset="0" style="stop-color:#000000"/>
			<stop  offset="0.109" style="stop-color:#060606"/>
			<stop  offset="0.252" style="stop-color:#161616"/>
			<stop  offset="0.4141" style="stop-color:#323232"/>
			<stop  offset="0.5902" style="stop-color:#575757"/>
			<stop  offset="0.7775" style="stop-color:#888888"/>
			<stop  offset="0.9716" style="stop-color:#C3C3C3"/>
			<stop  offset="1" style="stop-color:#CCCCCC"/>
		</linearGradient>
		<polygon class="st5" points="44.9,135.2 44.2,134.5 157.4,21.2 158.1,21.9 		"/>
	</g>
	<g>
		<linearGradient id="SVGID_7_" gradientUnits="userSpaceOnUse" x1="352.8434" y1="210.4384" x2="474.4527" y2="210.4384">
			<stop  offset="0" style="stop-color:#000000"/>
			<stop  offset="0.109" style="stop-color:#060606"/>
			<stop  offset="0.252" style="stop-color:#161616"/>
			<stop  offset="0.4141" style="stop-color:#323232"/>
			<stop  offset="0.5902" style="stop-color:#575757"/>
			<stop  offset="0.7775" style="stop-color:#888888"/>
			<stop  offset="0.9716" style="stop-color:#C3C3C3"/>
			<stop  offset="1" style="stop-color:#CCCCCC"/>
		</linearGradient>
		<polygon class="st6" points="353.6,271.2 352.8,270.5 473.7,149.6 474.5,150.3 		"/>
	</g>
	<g>
		<linearGradient id="SVGID_8_" gradientUnits="userSpaceOnUse" x1="269.5045" y1="211.2086" x2="381.0699" y2="211.2086">
			<stop  offset="0" style="stop-color:#000000"/>
			<stop  offset="0.109" style="stop-color:#060606"/>
			<stop  offset="0.252" style="stop-color:#161616"/>
			<stop  offset="0.4141" style="stop-color:#323232"/>
			<stop  offset="0.5902" style="stop-color:#575757"/>
			<stop  offset="0.7775" style="stop-color:#888888"/>
			<stop  offset="0.9716" style="stop-color:#C3C3C3"/>
			<stop  offset="1" style="stop-color:#CCCCCC"/>
		</linearGradient>
		<polygon class="st7" points="270.2,267 269.5,266.3 380.4,155.4 381.1,156.1 		"/>
	</g>
	<g>
		<linearGradient id="SVGID_9_" gradientUnits="userSpaceOnUse" x1="36.4967" y1="166.8395" x2="97.336" y2="166.8395">
			<stop  offset="0" style="stop-color:#000000"/>
			<stop  offset="0.109" style="stop-color:#060606"/>
			<stop  offset="0.252" style="stop-color:#161616"/>
			<stop  offset="0.4141" style="stop-color:#323232"/>
			<stop  offset="0.5902" style="stop-color:#575757"/>
			<stop  offset="0.7775" style="stop-color:#888888"/>
			<stop  offset="0.9716" style="stop-color:#C3C3C3"/>
			<stop  offset="1" style="stop-color:#CCCCCC"/>
		</linearGradient>
		<polygon class="st8" points="37.2,197.3 36.5,196.6 96.6,136.4 97.3,137.1 		"/>
	</g>
	<g>
		<radialGradient id="SVGID_10_" cx="416.0562" cy="165.6328" r="31.8178" gradientUnits="userSpaceOnUse">
			<stop  offset="0.198" style="stop-color:#808080"/>
			<stop  offset="0.4377" style="stop-color:#AAAAAA"/>
			<stop  offset="0.8186" style="stop-color:#E7E7E7"/>
			<stop  offset="1" style="stop-color:#FFFFFF"/>
		</radialGradient>
		<circle class="st9" cx="416.1" cy="165.6" r="31.8"/>
		<linearGradient id="SVGID_11_" gradientUnits="userSpaceOnUse" x1="416.1786" y1="174.4438" x2="416.1786" y2="135.6524">
			<stop  offset="0" style="stop-color:#FE9700"/>
			<stop  offset="1" style="stop-color:#FFE263"/>
		</linearGradient>
		<circle class="st10" cx="416.2" cy="156.5" r="23.3"/>
	</g>
	<g>
		<radialGradient id="SVGID_12_" cx="280.5874" cy="224.3306" r="11.0551" gradientUnits="userSpaceOnUse">
			<stop  offset="0.198" style="stop-color:#4D4D4D"/>
			<stop  offset="0.5813" style="stop-color:#A9A9A9"/>
			<stop  offset="0.8656" style="stop-color:#E7E7E7"/>
			<stop  offset="1" style="stop-color:#FFFFFF"/>
		</radialGradient>
		<circle class="st11" cx="280.6" cy="224.3" r="11.1"/>
		<linearGradient id="SVGID_13_" gradientUnits="userSpaceOnUse" x1="280.6299" y1="227.392" x2="280.6299" y2="213.9139">
			<stop  offset="0" style="stop-color:#FE5500"/>
			<stop  offset="1" style="stop-color:#FE8900"/>
		</linearGradient>
		<circle class="st12" cx="280.6" cy="221.1" r="8.1"/>
	</g>
	<g>
		<radialGradient id="SVGID_14_" cx="133.9842" cy="137.8503" r="16.0599" gradientUnits="userSpaceOnUse">
			<stop  offset="0.198" style="stop-color:#666666"/>
			<stop  offset="0.5222" style="stop-color:#A9A9A9"/>
			<stop  offset="0.8463" style="stop-color:#E7E7E7"/>
			<stop  offset="1" style="stop-color:#FFFFFF"/>
		</radialGradient>
		<circle class="st13" cx="134" cy="137.9" r="16.1"/>
		<linearGradient id="SVGID_15_" gradientUnits="userSpaceOnUse" x1="134.046" y1="142.2977" x2="134.046" y2="122.7179">
			<stop  offset="0" style="stop-color:#FE5500"/>
			<stop  offset="1" style="stop-color:#FE8900"/>
		</linearGradient>
		<circle class="st14" cx="134" cy="133.2" r="11.7"/>
	</g>
	<g>
		<circle class="st4" cx="182.6" cy="22.9" r="0.9"/>
		<circle class="st4" cx="188.6" cy="22.9" r="0.9"/>
		<circle class="st4" cx="194.6" cy="22.9" r="0.9"/>
		<circle class="st4" cx="200.6" cy="22.9" r="0.9"/>
		<circle class="st4" cx="206.6" cy="22.9" r="0.9"/>
		<circle class="st4" cx="212.6" cy="22.9" r="0.9"/>
		<circle class="st4" cx="218.6" cy="22.9" r="0.9"/>
		<circle class="st4" cx="224.6" cy="22.9" r="0.9"/>
		<circle class="st4" cx="230.6" cy="22.9" r="0.9"/>
		<circle class="st4" cx="236.6" cy="22.9" r="0.9"/>
		<circle class="st4" cx="242.6" cy="22.9" r="0.9"/>
		<circle class="st4" cx="248.6" cy="22.9" r="0.9"/>
		<circle class="st4" cx="254.6" cy="22.9" r="0.9"/>
		<circle class="st4" cx="260.6" cy="22.9" r="0.9"/>
		<circle class="st4" cx="266.6" cy="22.9" r="0.9"/>
		<circle class="st4" cx="272.6" cy="22.9" r="0.9"/>
		<circle class="st4" cx="278.6" cy="22.9" r="0.9"/>
		<circle class="st4" cx="284.6" cy="22.9" r="0.9"/>
		<circle class="st4" cx="290.6" cy="22.9" r="0.9"/>
		<circle class="st4" cx="296.6" cy="22.9" r="0.9"/>
		<circle class="st4" cx="302.6" cy="22.9" r="0.9"/>
		<circle class="st4" cx="308.6" cy="22.9" r="0.9"/>
		<circle class="st4" cx="314.6" cy="22.9" r="0.9"/>
		<circle class="st4" cx="320.6" cy="22.9" r="0.9"/>
		<circle class="st4" cx="326.6" cy="22.9" r="0.9"/>
		<circle class="st4" cx="332.6" cy="22.9" r="0.9"/>
		<circle class="st4" cx="338.6" cy="22.9" r="0.9"/>
		<circle class="st4" cx="344.6" cy="22.9" r="0.9"/>
		<circle class="st4" cx="350.6" cy="22.9" r="0.9"/>
		<circle class="st4" cx="356.6" cy="22.9" r="0.9"/>
		<circle class="st4" cx="362.6" cy="22.9" r="0.9"/>
		<circle class="st4" cx="368.6" cy="22.9" r="0.9"/>
		<circle class="st4" cx="374.6" cy="22.9" r="0.9"/>
		<circle class="st4" cx="380.6" cy="22.9" r="0.9"/>
		<circle class="st4" cx="386.6" cy="22.9" r="0.9"/>
		<circle class="st4" cx="392.6" cy="22.9" r="0.9"/>
		<circle class="st4" cx="398.6" cy="22.9" r="0.9"/>
		<circle class="st4" cx="404.6" cy="22.9" r="0.9"/>
		<circle class="st4" cx="410.6" cy="22.9" r="0.9"/>
		<circle class="st4" cx="416.6" cy="22.9" r="0.9"/>
		<circle class="st4" cx="182.6" cy="28.9" r="0.9"/>
		<circle class="st4" cx="188.6" cy="28.9" r="0.9"/>
		<circle class="st4" cx="194.6" cy="28.9" r="0.9"/>
		<circle class="st4" cx="200.6" cy="28.9" r="0.9"/>
		<circle class="st4" cx="206.6" cy="28.9" r="0.9"/>
		<circle class="st4" cx="212.6" cy="28.9" r="0.9"/>
		<circle class="st4" cx="218.6" cy="28.9" r="0.9"/>
		<circle class="st4" cx="224.6" cy="28.9" r="0.9"/>
		<circle class="st4" cx="230.6" cy="28.9" r="0.9"/>
		<circle class="st4" cx="236.6" cy="28.9" r="0.9"/>
		<circle class="st4" cx="242.6" cy="28.9" r="0.9"/>
		<circle class="st4" cx="248.6" cy="28.9" r="0.9"/>
		<circle class="st4" cx="254.6" cy="28.9" r="0.9"/>
		<circle class="st4" cx="260.6" cy="28.9" r="0.9"/>
		<circle class="st4" cx="266.6" cy="28.9" r="0.9"/>
		<circle class="st4" cx="272.6" cy="28.9" r="0.9"/>
		<circle class="st4" cx="278.6" cy="28.9" r="0.9"/>
		<circle class="st4" cx="284.6" cy="28.9" r="0.9"/>
		<circle class="st4" cx="290.6" cy="28.9" r="0.9"/>
		<circle class="st4" cx="296.6" cy="28.9" r="0.9"/>
		<circle class="st4" cx="302.6" cy="28.9" r="0.9"/>
		<circle class="st4" cx="308.6" cy="28.9" r="0.9"/>
		<circle class="st4" cx="314.6" cy="28.9" r="0.9"/>
		<circle class="st4" cx="320.6" cy="28.9" r="0.9"/>
		<circle class="st4" cx="326.6" cy="28.9" r="0.9"/>
		<circle class="st4" cx="332.6" cy="28.9" r="0.9"/>
		<circle class="st4" cx="338.6" cy="28.9" r="0.9"/>
		<circle class="st4" cx="344.6" cy="28.9" r="0.9"/>
		<circle class="st4" cx="350.6" cy="28.9" r="0.9"/>
		<circle class="st4" cx="356.6" cy="28.9" r="0.9"/>
		<circle class="st4" cx="362.6" cy="28.9" r="0.9"/>
		<circle class="st4" cx="368.6" cy="28.9" r="0.9"/>
		<circle class="st4" cx="374.6" cy="28.9" r="0.9"/>
		<circle class="st4" cx="380.6" cy="28.9" r="0.9"/>
		<circle class="st4" cx="386.6" cy="28.9" r="0.9"/>
		<circle class="st4" cx="392.6" cy="28.9" r="0.9"/>
		<circle class="st4" cx="398.6" cy="28.9" r="0.9"/>
		<circle class="st4" cx="404.6" cy="28.9" r="0.9"/>
		<circle class="st4" cx="410.6" cy="28.9" r="0.9"/>
		<circle class="st4" cx="416.6" cy="28.9" r="0.9"/>
		<circle class="st4" cx="182.6" cy="34.9" r="0.9"/>
		<circle class="st4" cx="188.6" cy="34.9" r="0.9"/>
		<circle class="st4" cx="194.6" cy="34.9" r="0.9"/>
		<circle class="st4" cx="200.6" cy="34.9" r="0.9"/>
		<circle class="st4" cx="206.6" cy="34.9" r="0.9"/>
		<circle class="st4" cx="212.6" cy="34.9" r="0.9"/>
		<circle class="st4" cx="218.6" cy="34.9" r="0.9"/>
		<circle class="st4" cx="224.6" cy="34.9" r="0.9"/>
		<circle class="st4" cx="230.6" cy="34.9" r="0.9"/>
		<circle class="st4" cx="236.6" cy="34.9" r="0.9"/>
		<circle class="st4" cx="242.6" cy="34.9" r="0.9"/>
		<circle class="st4" cx="248.6" cy="34.9" r="0.9"/>
		<circle class="st4" cx="254.6" cy="34.9" r="0.9"/>
		<circle class="st4" cx="260.6" cy="34.9" r="0.9"/>
		<circle class="st4" cx="266.6" cy="34.9" r="0.9"/>
		<circle class="st4" cx="272.6" cy="34.9" r="0.9"/>
		<circle class="st4" cx="278.6" cy="34.9" r="0.9"/>
		<circle class="st4" cx="284.6" cy="34.9" r="0.9"/>
		<circle class="st4" cx="290.6" cy="34.9" r="0.9"/>
		<circle class="st4" cx="296.6" cy="34.9" r="0.9"/>
		<circle class="st4" cx="302.6" cy="34.9" r="0.9"/>
		<circle class="st4" cx="308.6" cy="34.9" r="0.9"/>
		<circle class="st4" cx="314.6" cy="34.9" r="0.9"/>
		<circle class="st4" cx="320.6" cy="34.9" r="0.9"/>
		<circle class="st4" cx="326.6" cy="34.9" r="0.9"/>
		<circle class="st4" cx="332.6" cy="34.9" r="0.9"/>
		<circle class="st4" cx="338.6" cy="34.9" r="0.9"/>
		<circle class="st4" cx="344.6" cy="34.9" r="0.9"/>
		<circle class="st4" cx="350.6" cy="34.9" r="0.9"/>
		<circle class="st4" cx="356.6" cy="34.9" r="0.9"/>
		<circle class="st4" cx="362.6" cy="34.9" r="0.9"/>
		<circle class="st4" cx="368.6" cy="34.9" r="0.9"/>
		<circle class="st4" cx="374.6" cy="34.9" r="0.9"/>
		<circle class="st4" cx="380.6" cy="34.9" r="0.9"/>
		<circle class="st4" cx="386.6" cy="34.9" r="0.9"/>
		<circle class="st4" cx="392.6" cy="34.9" r="0.9"/>
		<circle class="st4" cx="398.6" cy="34.9" r="0.9"/>
		<circle class="st4" cx="404.6" cy="34.9" r="0.9"/>
		<circle class="st4" cx="410.6" cy="34.9" r="0.9"/>
		<circle class="st4" cx="416.6" cy="34.9" r="0.9"/>
		<circle class="st4" cx="182.6" cy="40.9" r="0.9"/>
		<circle class="st4" cx="188.6" cy="40.9" r="0.9"/>
		<circle class="st4" cx="194.6" cy="40.9" r="0.9"/>
		<circle class="st4" cx="200.6" cy="40.9" r="0.9"/>
		<circle class="st4" cx="206.6" cy="40.9" r="0.9"/>
		<circle class="st4" cx="212.6" cy="40.9" r="0.9"/>
		<circle class="st4" cx="218.6" cy="40.9" r="0.9"/>
		<circle class="st4" cx="224.6" cy="40.9" r="0.9"/>
		<circle class="st4" cx="230.6" cy="40.9" r="0.9"/>
		<circle class="st4" cx="236.6" cy="40.9" r="0.9"/>
		<circle class="st4" cx="242.6" cy="40.9" r="0.9"/>
		<circle class="st4" cx="248.6" cy="40.9" r="0.9"/>
		<circle class="st4" cx="254.6" cy="40.9" r="0.9"/>
		<circle class="st4" cx="260.6" cy="40.9" r="0.9"/>
		<circle class="st4" cx="266.6" cy="40.9" r="0.9"/>
		<circle class="st4" cx="272.6" cy="40.9" r="0.9"/>
		<circle class="st4" cx="278.6" cy="40.9" r="0.9"/>
		<circle class="st4" cx="284.6" cy="40.9" r="0.9"/>
		<circle class="st4" cx="290.6" cy="40.9" r="0.9"/>
		<circle class="st4" cx="296.6" cy="40.9" r="0.9"/>
		<circle class="st4" cx="302.6" cy="40.9" r="0.9"/>
		<circle class="st4" cx="308.6" cy="40.9" r="0.9"/>
		<circle class="st4" cx="314.6" cy="40.9" r="0.9"/>
		<circle class="st4" cx="320.6" cy="40.9" r="0.9"/>
		<circle class="st4" cx="326.6" cy="40.9" r="0.9"/>
		<circle class="st4" cx="332.6" cy="40.9" r="0.9"/>
		<circle class="st4" cx="338.6" cy="40.9" r="0.9"/>
		<circle class="st4" cx="344.6" cy="40.9" r="0.9"/>
		<circle class="st4" cx="350.6" cy="40.9" r="0.9"/>
		<circle class="st4" cx="356.6" cy="40.9" r="0.9"/>
		<circle class="st4" cx="362.6" cy="40.9" r="0.9"/>
		<circle class="st4" cx="368.6" cy="40.9" r="0.9"/>
		<circle class="st4" cx="374.6" cy="40.9" r="0.9"/>
		<circle class="st4" cx="380.6" cy="40.9" r="0.9"/>
		<circle class="st4" cx="386.6" cy="40.9" r="0.9"/>
		<circle class="st4" cx="392.6" cy="40.9" r="0.9"/>
		<circle class="st4" cx="398.6" cy="40.9" r="0.9"/>
		<circle class="st4" cx="404.6" cy="40.9" r="0.9"/>
		<circle class="st4" cx="410.6" cy="40.9" r="0.9"/>
		<circle class="st4" cx="416.6" cy="40.9" r="0.9"/>
		<circle class="st4" cx="182.6" cy="46.9" r="0.9"/>
		<circle class="st4" cx="188.6" cy="46.9" r="0.9"/>
		<circle class="st4" cx="194.6" cy="46.9" r="0.9"/>
		<circle class="st4" cx="200.6" cy="46.9" r="0.9"/>
		<circle class="st4" cx="206.6" cy="46.9" r="0.9"/>
		<circle class="st4" cx="212.6" cy="46.9" r="0.9"/>
		<circle class="st4" cx="218.6" cy="46.9" r="0.9"/>
		<circle class="st4" cx="224.6" cy="46.9" r="0.9"/>
		<circle class="st4" cx="230.6" cy="46.9" r="0.9"/>
		<circle class="st4" cx="236.6" cy="46.9" r="0.9"/>
		<circle class="st4" cx="242.6" cy="46.9" r="0.9"/>
		<circle class="st4" cx="248.6" cy="46.9" r="0.9"/>
		<circle class="st4" cx="254.6" cy="46.9" r="0.9"/>
		<circle class="st4" cx="260.6" cy="46.9" r="0.9"/>
		<circle class="st4" cx="266.6" cy="46.9" r="0.9"/>
		<circle class="st4" cx="272.6" cy="46.9" r="0.9"/>
		<circle class="st4" cx="278.6" cy="46.9" r="0.9"/>
		<circle class="st4" cx="284.6" cy="46.9" r="0.9"/>
		<circle class="st4" cx="290.6" cy="46.9" r="0.9"/>
		<circle class="st4" cx="296.6" cy="46.9" r="0.9"/>
		<circle class="st4" cx="302.6" cy="46.9" r="0.9"/>
		<circle class="st4" cx="308.6" cy="46.9" r="0.9"/>
		<circle class="st4" cx="314.6" cy="46.9" r="0.9"/>
		<circle class="st4" cx="320.6" cy="46.9" r="0.9"/>
		<circle class="st4" cx="326.6" cy="46.9" r="0.9"/>
		<circle class="st4" cx="332.6" cy="46.9" r="0.9"/>
		<circle class="st4" cx="338.6" cy="46.9" r="0.9"/>
		<circle class="st4" cx="344.6" cy="46.9" r="0.9"/>
		<circle class="st4" cx="350.6" cy="46.9" r="0.9"/>
		<circle class="st4" cx="356.6" cy="46.9" r="0.9"/>
		<circle class="st4" cx="362.6" cy="46.9" r="0.9"/>
		<circle class="st4" cx="368.6" cy="46.9" r="0.9"/>
		<circle class="st4" cx="374.6" cy="46.9" r="0.9"/>
		<circle class="st4" cx="380.6" cy="46.9" r="0.9"/>
		<circle class="st4" cx="386.6" cy="46.9" r="0.9"/>
		<circle class="st4" cx="392.6" cy="46.9" r="0.9"/>
		<circle class="st4" cx="398.6" cy="46.9" r="0.9"/>
		<circle class="st4" cx="404.6" cy="46.9" r="0.9"/>
		<circle class="st4" cx="410.6" cy="46.9" r="0.9"/>
		<circle class="st4" cx="416.6" cy="46.9" r="0.9"/>
		<circle class="st4" cx="182.6" cy="52.9" r="0.9"/>
		<circle class="st4" cx="188.6" cy="52.9" r="0.9"/>
		<circle class="st4" cx="194.6" cy="52.9" r="0.9"/>
		<circle class="st4" cx="200.6" cy="52.9" r="0.9"/>
		<circle class="st4" cx="206.6" cy="52.9" r="0.9"/>
		<circle class="st4" cx="212.6" cy="52.9" r="0.9"/>
		<circle class="st4" cx="218.6" cy="52.9" r="0.9"/>
		<circle class="st4" cx="224.6" cy="52.9" r="0.9"/>
		<circle class="st4" cx="230.6" cy="52.9" r="0.9"/>
		<circle class="st4" cx="236.6" cy="52.9" r="0.9"/>
		<circle class="st4" cx="242.6" cy="52.9" r="0.9"/>
		<circle class="st4" cx="248.6" cy="52.9" r="0.9"/>
		<circle class="st4" cx="254.6" cy="52.9" r="0.9"/>
		<circle class="st4" cx="260.6" cy="52.9" r="0.9"/>
		<circle class="st4" cx="266.6" cy="52.9" r="0.9"/>
		<circle class="st4" cx="272.6" cy="52.9" r="0.9"/>
		<circle class="st4" cx="278.6" cy="52.9" r="0.9"/>
		<circle class="st4" cx="284.6" cy="52.9" r="0.9"/>
		<circle class="st4" cx="290.6" cy="52.9" r="0.9"/>
		<circle class="st4" cx="296.6" cy="52.9" r="0.9"/>
		<circle class="st4" cx="302.6" cy="52.9" r="0.9"/>
		<circle class="st4" cx="308.6" cy="52.9" r="0.9"/>
		<circle class="st4" cx="314.6" cy="52.9" r="0.9"/>
		<circle class="st4" cx="320.6" cy="52.9" r="0.9"/>
		<circle class="st4" cx="326.6" cy="52.9" r="0.9"/>
		<circle class="st4" cx="332.6" cy="52.9" r="0.9"/>
		<circle class="st4" cx="338.6" cy="52.9" r="0.9"/>
		<circle class="st4" cx="344.6" cy="52.9" r="0.9"/>
		<circle class="st4" cx="350.6" cy="52.9" r="0.9"/>
		<circle class="st4" cx="356.6" cy="52.9" r="0.9"/>
		<circle class="st4" cx="362.6" cy="52.9" r="0.9"/>
		<circle class="st4" cx="368.6" cy="52.9" r="0.9"/>
		<circle class="st4" cx="374.6" cy="52.9" r="0.9"/>
		<circle class="st4" cx="380.6" cy="52.9" r="0.9"/>
		<circle class="st4" cx="386.6" cy="52.9" r="0.9"/>
		<circle class="st4" cx="392.6" cy="52.9" r="0.9"/>
		<circle class="st4" cx="398.6" cy="52.9" r="0.9"/>
		<circle class="st4" cx="404.6" cy="52.9" r="0.9"/>
		<circle class="st4" cx="410.6" cy="52.9" r="0.9"/>
		<circle class="st4" cx="416.6" cy="52.9" r="0.9"/>
		<circle class="st4" cx="182.6" cy="58.9" r="0.9"/>
		<circle class="st4" cx="188.6" cy="58.9" r="0.9"/>
		<circle class="st4" cx="194.6" cy="58.9" r="0.9"/>
		<circle class="st4" cx="200.6" cy="58.9" r="0.9"/>
		<circle class="st4" cx="206.6" cy="58.9" r="0.9"/>
		<circle class="st4" cx="212.6" cy="58.9" r="0.9"/>
		<circle class="st4" cx="218.6" cy="58.9" r="0.9"/>
		<circle class="st4" cx="224.6" cy="58.9" r="0.9"/>
		<circle class="st4" cx="230.6" cy="58.9" r="0.9"/>
		<circle class="st4" cx="236.6" cy="58.9" r="0.9"/>
		<circle class="st4" cx="242.6" cy="58.9" r="0.9"/>
		<circle class="st4" cx="248.6" cy="58.9" r="0.9"/>
		<circle class="st4" cx="254.6" cy="58.9" r="0.9"/>
		<circle class="st4" cx="260.6" cy="58.9" r="0.9"/>
		<circle class="st4" cx="266.6" cy="58.9" r="0.9"/>
		<circle class="st4" cx="272.6" cy="58.9" r="0.9"/>
		<circle class="st4" cx="278.6" cy="58.9" r="0.9"/>
		<circle class="st4" cx="284.6" cy="58.9" r="0.9"/>
		<circle class="st4" cx="290.6" cy="58.9" r="0.9"/>
		<circle class="st4" cx="296.6" cy="58.9" r="0.9"/>
		<circle class="st4" cx="302.6" cy="58.9" r="0.9"/>
		<circle class="st4" cx="308.6" cy="58.9" r="0.9"/>
		<circle class="st4" cx="314.6" cy="58.9" r="0.9"/>
		<circle class="st4" cx="320.6" cy="58.9" r="0.9"/>
		<circle class="st4" cx="326.6" cy="58.9" r="0.9"/>
		<circle class="st4" cx="332.6" cy="58.9" r="0.9"/>
		<circle class="st4" cx="338.6" cy="58.9" r="0.9"/>
		<circle class="st4" cx="344.6" cy="58.9" r="0.9"/>
		<circle class="st4" cx="350.6" cy="58.9" r="0.9"/>
		<circle class="st4" cx="356.6" cy="58.9" r="0.9"/>
		<circle class="st4" cx="362.6" cy="58.9" r="0.9"/>
		<circle class="st4" cx="368.6" cy="58.9" r="0.9"/>
		<circle class="st4" cx="374.6" cy="58.9" r="0.9"/>
		<circle class="st4" cx="380.6" cy="58.9" r="0.9"/>
		<circle class="st4" cx="386.6" cy="58.9" r="0.9"/>
		<circle class="st4" cx="392.6" cy="58.9" r="0.9"/>
		<circle class="st4" cx="398.6" cy="58.9" r="0.9"/>
		<circle class="st4" cx="404.6" cy="58.9" r="0.9"/>
		<circle class="st4" cx="410.6" cy="58.9" r="0.9"/>
		<circle class="st4" cx="416.6" cy="58.9" r="0.9"/>
	</g>
	<g>
		<path class="st4" d="M20.1,247c0.5,0,0.9-0.4,0.9-0.9s-0.4-0.9-0.9-0.9c-0.5,0-0.9,0.4-0.9,0.9S19.6,247,20.1,247z"/>
		<path class="st4" d="M26.1,247c0.5,0,0.9-0.4,0.9-0.9s-0.4-0.9-0.9-0.9c-0.5,0-0.9,0.4-0.9,0.9S25.6,247,26.1,247z"/>
		<path class="st4" d="M32.1,247c0.5,0,0.9-0.4,0.9-0.9s-0.4-0.9-0.9-0.9c-0.5,0-0.9,0.4-0.9,0.9S31.6,247,32.1,247z"/>
		<path class="st4" d="M38.1,247c0.5,0,0.9-0.4,0.9-0.9s-0.4-0.9-0.9-0.9c-0.5,0-0.9,0.4-0.9,0.9S37.6,247,38.1,247z"/>
		<path class="st4" d="M44.1,247c0.5,0,0.9-0.4,0.9-0.9s-0.4-0.9-0.9-0.9c-0.5,0-0.9,0.4-0.9,0.9S43.6,247,44.1,247z"/>
		<path class="st4" d="M50.1,247c0.5,0,0.9-0.4,0.9-0.9s-0.4-0.9-0.9-0.9c-0.5,0-0.9,0.4-0.9,0.9S49.6,247,50.1,247z"/>
		<path class="st4" d="M56.1,247c0.5,0,0.9-0.4,0.9-0.9s-0.4-0.9-0.9-0.9c-0.5,0-0.9,0.4-0.9,0.9S55.6,247,56.1,247z"/>
		<path class="st4" d="M62.1,247c0.5,0,0.9-0.4,0.9-0.9s-0.4-0.9-0.9-0.9c-0.5,0-0.9,0.4-0.9,0.9S61.6,247,62.1,247z"/>
		<path class="st4" d="M68.1,247c0.5,0,0.9-0.4,0.9-0.9s-0.4-0.9-0.9-0.9c-0.5,0-0.9,0.4-0.9,0.9S67.6,247,68.1,247z"/>
		<path class="st4" d="M74.1,247c0.5,0,0.9-0.4,0.9-0.9s-0.4-0.9-0.9-0.9c-0.5,0-0.9,0.4-0.9,0.9S73.6,247,74.1,247z"/>
		<path class="st4" d="M80.1,247c0.5,0,0.9-0.4,0.9-0.9s-0.4-0.9-0.9-0.9c-0.5,0-0.9,0.4-0.9,0.9S79.6,247,80.1,247z"/>
		<path class="st4" d="M86.1,247c0.5,0,0.9-0.4,0.9-0.9s-0.4-0.9-0.9-0.9c-0.5,0-0.9,0.4-0.9,0.9S85.6,247,86.1,247z"/>
		<path class="st4" d="M92.1,247c0.5,0,0.9-0.4,0.9-0.9s-0.4-0.9-0.9-0.9c-0.5,0-0.9,0.4-0.9,0.9S91.6,247,92.1,247z"/>
		<path class="st4" d="M98.1,247c0.5,0,0.9-0.4,0.9-0.9s-0.4-0.9-0.9-0.9c-0.5,0-0.9,0.4-0.9,0.9S97.6,247,98.1,247z"/>
		<path class="st4" d="M104.1,247c0.5,0,0.9-0.4,0.9-0.9s-0.4-0.9-0.9-0.9c-0.5,0-0.9,0.4-0.9,0.9S103.6,247,104.1,247z"/>
		<path class="st4" d="M110.1,247c0.5,0,0.9-0.4,0.9-0.9s-0.4-0.9-0.9-0.9c-0.5,0-0.9,0.4-0.9,0.9S109.6,247,110.1,247z"/>
		<path class="st4" d="M116.1,247c0.5,0,0.9-0.4,0.9-0.9s-0.4-0.9-0.9-0.9c-0.5,0-0.9,0.4-0.9,0.9S115.6,247,116.1,247z"/>
		<path class="st4" d="M122.1,247c0.5,0,0.9-0.4,0.9-0.9s-0.4-0.9-0.9-0.9c-0.5,0-0.9,0.4-0.9,0.9S121.6,247,122.1,247z"/>
		<path class="st4" d="M128.1,247c0.5,0,0.9-0.4,0.9-0.9s-0.4-0.9-0.9-0.9c-0.5,0-0.9,0.4-0.9,0.9S127.6,247,128.1,247z"/>
		<path class="st4" d="M134.1,247c0.5,0,0.9-0.4,0.9-0.9s-0.4-0.9-0.9-0.9c-0.5,0-0.9,0.4-0.9,0.9S133.6,247,134.1,247z"/>
		<path class="st4" d="M140.1,247c0.5,0,0.9-0.4,0.9-0.9s-0.4-0.9-0.9-0.9c-0.5,0-0.9,0.4-0.9,0.9S139.6,247,140.1,247z"/>
		<path class="st4" d="M146.1,247c0.5,0,0.9-0.4,0.9-0.9s-0.4-0.9-0.9-0.9c-0.5,0-0.9,0.4-0.9,0.9S145.6,247,146.1,247z"/>
		<path class="st4" d="M152.1,247c0.5,0,0.9-0.4,0.9-0.9s-0.4-0.9-0.9-0.9c-0.5,0-0.9,0.4-0.9,0.9S151.6,247,152.1,247z"/>
		<path class="st4" d="M158.1,247c0.5,0,0.9-0.4,0.9-0.9s-0.4-0.9-0.9-0.9c-0.5,0-0.9,0.4-0.9,0.9S157.6,247,158.1,247z"/>
		<path class="st4" d="M164.1,247c0.5,0,0.9-0.4,0.9-0.9s-0.4-0.9-0.9-0.9c-0.5,0-0.9,0.4-0.9,0.9S163.6,247,164.1,247z"/>
		<path class="st4" d="M170.1,247c0.5,0,0.9-0.4,0.9-0.9s-0.4-0.9-0.9-0.9c-0.5,0-0.9,0.4-0.9,0.9S169.6,247,170.1,247z"/>
		<path class="st4" d="M176.1,247c0.5,0,0.9-0.4,0.9-0.9s-0.4-0.9-0.9-0.9c-0.5,0-0.9,0.4-0.9,0.9S175.6,247,176.1,247z"/>
		<path class="st4" d="M182.1,247c0.5,0,0.9-0.4,0.9-0.9s-0.4-0.9-0.9-0.9c-0.5,0-0.9,0.4-0.9,0.9S181.6,247,182.1,247z"/>
		<path class="st4" d="M188.1,247c0.5,0,0.9-0.4,0.9-0.9s-0.4-0.9-0.9-0.9c-0.5,0-0.9,0.4-0.9,0.9S187.6,247,188.1,247z"/>
		<path class="st4" d="M194.1,247c0.5,0,0.9-0.4,0.9-0.9s-0.4-0.9-0.9-0.9c-0.5,0-0.9,0.4-0.9,0.9S193.6,247,194.1,247z"/>
		<path class="st4" d="M200.1,247c0.5,0,0.9-0.4,0.9-0.9s-0.4-0.9-0.9-0.9c-0.5,0-0.9,0.4-0.9,0.9S199.6,247,200.1,247z"/>
		<path class="st4" d="M206.1,247c0.5,0,0.9-0.4,0.9-0.9s-0.4-0.9-0.9-0.9c-0.5,0-0.9,0.4-0.9,0.9S205.6,247,206.1,247z"/>
		<path class="st4" d="M212.1,247c0.5,0,0.9-0.4,0.9-0.9s-0.4-0.9-0.9-0.9c-0.5,0-0.9,0.4-0.9,0.9S211.6,247,212.1,247z"/>
		<path class="st4" d="M218.1,247c0.5,0,0.9-0.4,0.9-0.9s-0.4-0.9-0.9-0.9c-0.5,0-0.9,0.4-0.9,0.9S217.6,247,218.1,247z"/>
		<path class="st4" d="M224.1,247c0.5,0,0.9-0.4,0.9-0.9s-0.4-0.9-0.9-0.9c-0.5,0-0.9,0.4-0.9,0.9S223.6,247,224.1,247z"/>
		<path class="st4" d="M230.1,247c0.5,0,0.9-0.4,0.9-0.9s-0.4-0.9-0.9-0.9c-0.5,0-0.9,0.4-0.9,0.9S229.6,247,230.1,247z"/>
		<path class="st4" d="M236.1,247c0.5,0,0.9-0.4,0.9-0.9s-0.4-0.9-0.9-0.9c-0.5,0-0.9,0.4-0.9,0.9S235.6,247,236.1,247z"/>
		<path class="st4" d="M242.1,247c0.5,0,0.9-0.4,0.9-0.9s-0.4-0.9-0.9-0.9c-0.5,0-0.9,0.4-0.9,0.9S241.6,247,242.1,247z"/>
		<path class="st4" d="M248.1,247c0.5,0,0.9-0.4,0.9-0.9s-0.4-0.9-0.9-0.9c-0.5,0-0.9,0.4-0.9,0.9S247.6,247,248.1,247z"/>
		<path class="st4" d="M254.1,247c0.5,0,0.9-0.4,0.9-0.9s-0.4-0.9-0.9-0.9c-0.5,0-0.9,0.4-0.9,0.9S253.6,247,254.1,247z"/>
		<path class="st4" d="M260.1,247c0.5,0,0.9-0.4,0.9-0.9s-0.4-0.9-0.9-0.9c-0.5,0-0.9,0.4-0.9,0.9S259.6,247,260.1,247z"/>
		<path class="st4" d="M266.1,247c0.5,0,0.9-0.4,0.9-0.9s-0.4-0.9-0.9-0.9c-0.5,0-0.9,0.4-0.9,0.9S265.6,247,266.1,247z"/>
		<path class="st4" d="M272.1,247c0.5,0,0.9-0.4,0.9-0.9s-0.4-0.9-0.9-0.9c-0.5,0-0.9,0.4-0.9,0.9S271.6,247,272.1,247z"/>
		<path class="st4" d="M20.1,253c0.5,0,0.9-0.4,0.9-0.9s-0.4-0.9-0.9-0.9c-0.5,0-0.9,0.4-0.9,0.9S19.6,253,20.1,253z"/>
		<path class="st4" d="M26.1,253c0.5,0,0.9-0.4,0.9-0.9s-0.4-0.9-0.9-0.9c-0.5,0-0.9,0.4-0.9,0.9S25.6,253,26.1,253z"/>
		<path class="st4" d="M32.1,253c0.5,0,0.9-0.4,0.9-0.9s-0.4-0.9-0.9-0.9c-0.5,0-0.9,0.4-0.9,0.9S31.6,253,32.1,253z"/>
		<path class="st4" d="M38.1,253c0.5,0,0.9-0.4,0.9-0.9s-0.4-0.9-0.9-0.9c-0.5,0-0.9,0.4-0.9,0.9S37.6,253,38.1,253z"/>
		<path class="st4" d="M44.1,253c0.5,0,0.9-0.4,0.9-0.9s-0.4-0.9-0.9-0.9c-0.5,0-0.9,0.4-0.9,0.9S43.6,253,44.1,253z"/>
		<path class="st4" d="M50.1,253c0.5,0,0.9-0.4,0.9-0.9s-0.4-0.9-0.9-0.9c-0.5,0-0.9,0.4-0.9,0.9S49.6,253,50.1,253z"/>
		<path class="st4" d="M56.1,253c0.5,0,0.9-0.4,0.9-0.9s-0.4-0.9-0.9-0.9c-0.5,0-0.9,0.4-0.9,0.9S55.6,253,56.1,253z"/>
		<path class="st4" d="M62.1,253c0.5,0,0.9-0.4,0.9-0.9s-0.4-0.9-0.9-0.9c-0.5,0-0.9,0.4-0.9,0.9S61.6,253,62.1,253z"/>
		<path class="st4" d="M68.1,253c0.5,0,0.9-0.4,0.9-0.9s-0.4-0.9-0.9-0.9c-0.5,0-0.9,0.4-0.9,0.9S67.6,253,68.1,253z"/>
		<path class="st4" d="M74.1,253c0.5,0,0.9-0.4,0.9-0.9s-0.4-0.9-0.9-0.9c-0.5,0-0.9,0.4-0.9,0.9S73.6,253,74.1,253z"/>
		<path class="st4" d="M80.1,253c0.5,0,0.9-0.4,0.9-0.9s-0.4-0.9-0.9-0.9c-0.5,0-0.9,0.4-0.9,0.9S79.6,253,80.1,253z"/>
		<path class="st4" d="M86.1,253c0.5,0,0.9-0.4,0.9-0.9s-0.4-0.9-0.9-0.9c-0.5,0-0.9,0.4-0.9,0.9S85.6,253,86.1,253z"/>
		<path class="st4" d="M92.1,253c0.5,0,0.9-0.4,0.9-0.9s-0.4-0.9-0.9-0.9c-0.5,0-0.9,0.4-0.9,0.9S91.6,253,92.1,253z"/>
		<path class="st4" d="M98.1,253c0.5,0,0.9-0.4,0.9-0.9s-0.4-0.9-0.9-0.9c-0.5,0-0.9,0.4-0.9,0.9S97.6,253,98.1,253z"/>
		<path class="st4" d="M104.1,253c0.5,0,0.9-0.4,0.9-0.9s-0.4-0.9-0.9-0.9c-0.5,0-0.9,0.4-0.9,0.9S103.6,253,104.1,253z"/>
		<path class="st4" d="M110.1,253c0.5,0,0.9-0.4,0.9-0.9s-0.4-0.9-0.9-0.9c-0.5,0-0.9,0.4-0.9,0.9S109.6,253,110.1,253z"/>
		<path class="st4" d="M116.1,253c0.5,0,0.9-0.4,0.9-0.9s-0.4-0.9-0.9-0.9c-0.5,0-0.9,0.4-0.9,0.9S115.6,253,116.1,253z"/>
		<path class="st4" d="M122.1,253c0.5,0,0.9-0.4,0.9-0.9s-0.4-0.9-0.9-0.9c-0.5,0-0.9,0.4-0.9,0.9S121.6,253,122.1,253z"/>
		<path class="st4" d="M128.1,253c0.5,0,0.9-0.4,0.9-0.9s-0.4-0.9-0.9-0.9c-0.5,0-0.9,0.4-0.9,0.9S127.6,253,128.1,253z"/>
		<path class="st4" d="M134.1,253c0.5,0,0.9-0.4,0.9-0.9s-0.4-0.9-0.9-0.9c-0.5,0-0.9,0.4-0.9,0.9S133.6,253,134.1,253z"/>
		<path class="st4" d="M140.1,253c0.5,0,0.9-0.4,0.9-0.9s-0.4-0.9-0.9-0.9c-0.5,0-0.9,0.4-0.9,0.9S139.6,253,140.1,253z"/>
		<path class="st4" d="M146.1,253c0.5,0,0.9-0.4,0.9-0.9s-0.4-0.9-0.9-0.9c-0.5,0-0.9,0.4-0.9,0.9S145.6,253,146.1,253z"/>
		<path class="st4" d="M152.1,253c0.5,0,0.9-0.4,0.9-0.9s-0.4-0.9-0.9-0.9c-0.5,0-0.9,0.4-0.9,0.9S151.6,253,152.1,253z"/>
		<path class="st4" d="M158.1,253c0.5,0,0.9-0.4,0.9-0.9s-0.4-0.9-0.9-0.9c-0.5,0-0.9,0.4-0.9,0.9S157.6,253,158.1,253z"/>
		<path class="st4" d="M164.1,253c0.5,0,0.9-0.4,0.9-0.9s-0.4-0.9-0.9-0.9c-0.5,0-0.9,0.4-0.9,0.9S163.6,253,164.1,253z"/>
		<path class="st4" d="M170.1,253c0.5,0,0.9-0.4,0.9-0.9s-0.4-0.9-0.9-0.9c-0.5,0-0.9,0.4-0.9,0.9S169.6,253,170.1,253z"/>
		<path class="st4" d="M176.1,253c0.5,0,0.9-0.4,0.9-0.9s-0.4-0.9-0.9-0.9c-0.5,0-0.9,0.4-0.9,0.9S175.6,253,176.1,253z"/>
		<path class="st4" d="M182.1,253c0.5,0,0.9-0.4,0.9-0.9s-0.4-0.9-0.9-0.9c-0.5,0-0.9,0.4-0.9,0.9S181.6,253,182.1,253z"/>
		<path class="st4" d="M188.1,253c0.5,0,0.9-0.4,0.9-0.9s-0.4-0.9-0.9-0.9c-0.5,0-0.9,0.4-0.9,0.9S187.6,253,188.1,253z"/>
		<path class="st4" d="M194.1,253c0.5,0,0.9-0.4,0.9-0.9s-0.4-0.9-0.9-0.9c-0.5,0-0.9,0.4-0.9,0.9S193.6,253,194.1,253z"/>
		<path class="st4" d="M200.1,253c0.5,0,0.9-0.4,0.9-0.9s-0.4-0.9-0.9-0.9c-0.5,0-0.9,0.4-0.9,0.9S199.6,253,200.1,253z"/>
		<path class="st4" d="M206.1,253c0.5,0,0.9-0.4,0.9-0.9s-0.4-0.9-0.9-0.9c-0.5,0-0.9,0.4-0.9,0.9S205.6,253,206.1,253z"/>
		<path class="st4" d="M212.1,253c0.5,0,0.9-0.4,0.9-0.9s-0.4-0.9-0.9-0.9c-0.5,0-0.9,0.4-0.9,0.9S211.6,253,212.1,253z"/>
		<path class="st4" d="M218.1,253c0.5,0,0.9-0.4,0.9-0.9s-0.4-0.9-0.9-0.9c-0.5,0-0.9,0.4-0.9,0.9S217.6,253,218.1,253z"/>
		<path class="st4" d="M224.1,253c0.5,0,0.9-0.4,0.9-0.9s-0.4-0.9-0.9-0.9c-0.5,0-0.9,0.4-0.9,0.9S223.6,253,224.1,253z"/>
		<path class="st4" d="M230.1,253c0.5,0,0.9-0.4,0.9-0.9s-0.4-0.9-0.9-0.9c-0.5,0-0.9,0.4-0.9,0.9S229.6,253,230.1,253z"/>
		<path class="st4" d="M236.1,253c0.5,0,0.9-0.4,0.9-0.9s-0.4-0.9-0.9-0.9c-0.5,0-0.9,0.4-0.9,0.9S235.6,253,236.1,253z"/>
		<path class="st4" d="M242.1,253c0.5,0,0.9-0.4,0.9-0.9s-0.4-0.9-0.9-0.9c-0.5,0-0.9,0.4-0.9,0.9S241.6,253,242.1,253z"/>
		<path class="st4" d="M248.1,253c0.5,0,0.9-0.4,0.9-0.9s-0.4-0.9-0.9-0.9c-0.5,0-0.9,0.4-0.9,0.9S247.6,253,248.1,253z"/>
		<path class="st4" d="M254.1,253c0.5,0,0.9-0.4,0.9-0.9s-0.4-0.9-0.9-0.9c-0.5,0-0.9,0.4-0.9,0.9S253.6,253,254.1,253z"/>
		<path class="st4" d="M260.1,253c0.5,0,0.9-0.4,0.9-0.9s-0.4-0.9-0.9-0.9c-0.5,0-0.9,0.4-0.9,0.9S259.6,253,260.1,253z"/>
		<path class="st4" d="M266.1,253c0.5,0,0.9-0.4,0.9-0.9s-0.4-0.9-0.9-0.9c-0.5,0-0.9,0.4-0.9,0.9S265.6,253,266.1,253z"/>
		<path class="st4" d="M272.1,253c0.5,0,0.9-0.4,0.9-0.9s-0.4-0.9-0.9-0.9c-0.5,0-0.9,0.4-0.9,0.9S271.6,253,272.1,253z"/>
		<path class="st4" d="M20.1,259c0.5,0,0.9-0.4,0.9-0.9s-0.4-0.9-0.9-0.9c-0.5,0-0.9,0.4-0.9,0.9S19.6,259,20.1,259z"/>
		<path class="st4" d="M26.1,259c0.5,0,0.9-0.4,0.9-0.9s-0.4-0.9-0.9-0.9c-0.5,0-0.9,0.4-0.9,0.9S25.6,259,26.1,259z"/>
		<path class="st4" d="M32.1,259c0.5,0,0.9-0.4,0.9-0.9s-0.4-0.9-0.9-0.9c-0.5,0-0.9,0.4-0.9,0.9S31.6,259,32.1,259z"/>
		<path class="st4" d="M38.1,259c0.5,0,0.9-0.4,0.9-0.9s-0.4-0.9-0.9-0.9c-0.5,0-0.9,0.4-0.9,0.9S37.6,259,38.1,259z"/>
		<path class="st4" d="M44.1,259c0.5,0,0.9-0.4,0.9-0.9s-0.4-0.9-0.9-0.9c-0.5,0-0.9,0.4-0.9,0.9S43.6,259,44.1,259z"/>
		<path class="st4" d="M50.1,259c0.5,0,0.9-0.4,0.9-0.9s-0.4-0.9-0.9-0.9c-0.5,0-0.9,0.4-0.9,0.9S49.6,259,50.1,259z"/>
		<path class="st4" d="M56.1,259c0.5,0,0.9-0.4,0.9-0.9s-0.4-0.9-0.9-0.9c-0.5,0-0.9,0.4-0.9,0.9S55.6,259,56.1,259z"/>
		<path class="st4" d="M62.1,259c0.5,0,0.9-0.4,0.9-0.9s-0.4-0.9-0.9-0.9c-0.5,0-0.9,0.4-0.9,0.9S61.6,259,62.1,259z"/>
		<path class="st4" d="M68.1,259c0.5,0,0.9-0.4,0.9-0.9s-0.4-0.9-0.9-0.9c-0.5,0-0.9,0.4-0.9,0.9S67.6,259,68.1,259z"/>
		<path class="st4" d="M74.1,259c0.5,0,0.9-0.4,0.9-0.9s-0.4-0.9-0.9-0.9c-0.5,0-0.9,0.4-0.9,0.9S73.6,259,74.1,259z"/>
		<path class="st4" d="M80.1,259c0.5,0,0.9-0.4,0.9-0.9s-0.4-0.9-0.9-0.9c-0.5,0-0.9,0.4-0.9,0.9S79.6,259,80.1,259z"/>
		<path class="st4" d="M86.1,259c0.5,0,0.9-0.4,0.9-0.9s-0.4-0.9-0.9-0.9c-0.5,0-0.9,0.4-0.9,0.9S85.6,259,86.1,259z"/>
		<path class="st4" d="M92.1,259c0.5,0,0.9-0.4,0.9-0.9s-0.4-0.9-0.9-0.9c-0.5,0-0.9,0.4-0.9,0.9S91.6,259,92.1,259z"/>
		<path class="st4" d="M98.1,259c0.5,0,0.9-0.4,0.9-0.9s-0.4-0.9-0.9-0.9c-0.5,0-0.9,0.4-0.9,0.9S97.6,259,98.1,259z"/>
		<path class="st4" d="M104.1,259c0.5,0,0.9-0.4,0.9-0.9s-0.4-0.9-0.9-0.9c-0.5,0-0.9,0.4-0.9,0.9S103.6,259,104.1,259z"/>
		<path class="st4" d="M110.1,259c0.5,0,0.9-0.4,0.9-0.9s-0.4-0.9-0.9-0.9c-0.5,0-0.9,0.4-0.9,0.9S109.6,259,110.1,259z"/>
		<path class="st4" d="M116.1,259c0.5,0,0.9-0.4,0.9-0.9s-0.4-0.9-0.9-0.9c-0.5,0-0.9,0.4-0.9,0.9S115.6,259,116.1,259z"/>
		<path class="st4" d="M122.1,259c0.5,0,0.9-0.4,0.9-0.9s-0.4-0.9-0.9-0.9c-0.5,0-0.9,0.4-0.9,0.9S121.6,259,122.1,259z"/>
		<path class="st4" d="M128.1,259c0.5,0,0.9-0.4,0.9-0.9s-0.4-0.9-0.9-0.9c-0.5,0-0.9,0.4-0.9,0.9S127.6,259,128.1,259z"/>
		<path class="st4" d="M134.1,259c0.5,0,0.9-0.4,0.9-0.9s-0.4-0.9-0.9-0.9c-0.5,0-0.9,0.4-0.9,0.9S133.6,259,134.1,259z"/>
		<path class="st4" d="M140.1,259c0.5,0,0.9-0.4,0.9-0.9s-0.4-0.9-0.9-0.9c-0.5,0-0.9,0.4-0.9,0.9S139.6,259,140.1,259z"/>
		<path class="st4" d="M146.1,259c0.5,0,0.9-0.4,0.9-0.9s-0.4-0.9-0.9-0.9c-0.5,0-0.9,0.4-0.9,0.9S145.6,259,146.1,259z"/>
		<path class="st4" d="M152.1,259c0.5,0,0.9-0.4,0.9-0.9s-0.4-0.9-0.9-0.9c-0.5,0-0.9,0.4-0.9,0.9S151.6,259,152.1,259z"/>
		<path class="st4" d="M158.1,259c0.5,0,0.9-0.4,0.9-0.9s-0.4-0.9-0.9-0.9c-0.5,0-0.9,0.4-0.9,0.9S157.6,259,158.1,259z"/>
		<path class="st4" d="M164.1,259c0.5,0,0.9-0.4,0.9-0.9s-0.4-0.9-0.9-0.9c-0.5,0-0.9,0.4-0.9,0.9S163.6,259,164.1,259z"/>
		<path class="st4" d="M170.1,259c0.5,0,0.9-0.4,0.9-0.9s-0.4-0.9-0.9-0.9c-0.5,0-0.9,0.4-0.9,0.9S169.6,259,170.1,259z"/>
		<path class="st4" d="M176.1,259c0.5,0,0.9-0.4,0.9-0.9s-0.4-0.9-0.9-0.9c-0.5,0-0.9,0.4-0.9,0.9S175.6,259,176.1,259z"/>
		<path class="st4" d="M182.1,259c0.5,0,0.9-0.4,0.9-0.9s-0.4-0.9-0.9-0.9c-0.5,0-0.9,0.4-0.9,0.9S181.6,259,182.1,259z"/>
		<path class="st4" d="M188.1,259c0.5,0,0.9-0.4,0.9-0.9s-0.4-0.9-0.9-0.9c-0.5,0-0.9,0.4-0.9,0.9S187.6,259,188.1,259z"/>
		<path class="st4" d="M194.1,259c0.5,0,0.9-0.4,0.9-0.9s-0.4-0.9-0.9-0.9c-0.5,0-0.9,0.4-0.9,0.9S193.6,259,194.1,259z"/>
		<path class="st4" d="M200.1,259c0.5,0,0.9-0.4,0.9-0.9s-0.4-0.9-0.9-0.9c-0.5,0-0.9,0.4-0.9,0.9S199.6,259,200.1,259z"/>
		<path class="st4" d="M206.1,259c0.5,0,0.9-0.4,0.9-0.9s-0.4-0.9-0.9-0.9c-0.5,0-0.9,0.4-0.9,0.9S205.6,259,206.1,259z"/>
		<path class="st4" d="M212.1,259c0.5,0,0.9-0.4,0.9-0.9s-0.4-0.9-0.9-0.9c-0.5,0-0.9,0.4-0.9,0.9S211.6,259,212.1,259z"/>
		<path class="st4" d="M218.1,259c0.5,0,0.9-0.4,0.9-0.9s-0.4-0.9-0.9-0.9c-0.5,0-0.9,0.4-0.9,0.9S217.6,259,218.1,259z"/>
		<path class="st4" d="M224.1,259c0.5,0,0.9-0.4,0.9-0.9s-0.4-0.9-0.9-0.9c-0.5,0-0.9,0.4-0.9,0.9S223.6,259,224.1,259z"/>
		<path class="st4" d="M230.1,259c0.5,0,0.9-0.4,0.9-0.9s-0.4-0.9-0.9-0.9c-0.5,0-0.9,0.4-0.9,0.9S229.6,259,230.1,259z"/>
		<path class="st4" d="M236.1,259c0.5,0,0.9-0.4,0.9-0.9s-0.4-0.9-0.9-0.9c-0.5,0-0.9,0.4-0.9,0.9S235.6,259,236.1,259z"/>
		<path class="st4" d="M242.1,259c0.5,0,0.9-0.4,0.9-0.9s-0.4-0.9-0.9-0.9c-0.5,0-0.9,0.4-0.9,0.9S241.6,259,242.1,259z"/>
		<path class="st4" d="M248.1,259c0.5,0,0.9-0.4,0.9-0.9s-0.4-0.9-0.9-0.9c-0.5,0-0.9,0.4-0.9,0.9S247.6,259,248.1,259z"/>
		<path class="st4" d="M254.1,259c0.5,0,0.9-0.4,0.9-0.9s-0.4-0.9-0.9-0.9c-0.5,0-0.9,0.4-0.9,0.9S253.6,259,254.1,259z"/>
		<path class="st4" d="M260.1,259c0.5,0,0.9-0.4,0.9-0.9s-0.4-0.9-0.9-0.9c-0.5,0-0.9,0.4-0.9,0.9S259.6,259,260.1,259z"/>
		<path class="st4" d="M266.1,259c0.5,0,0.9-0.4,0.9-0.9s-0.4-0.9-0.9-0.9c-0.5,0-0.9,0.4-0.9,0.9S265.6,259,266.1,259z"/>
		<path class="st4" d="M272.1,259c0.5,0,0.9-0.4,0.9-0.9s-0.4-0.9-0.9-0.9c-0.5,0-0.9,0.4-0.9,0.9S271.6,259,272.1,259z"/>
		<path class="st4" d="M20.1,265c0.5,0,0.9-0.4,0.9-0.9s-0.4-0.9-0.9-0.9c-0.5,0-0.9,0.4-0.9,0.9S19.6,265,20.1,265z"/>
		<path class="st4" d="M26.1,265c0.5,0,0.9-0.4,0.9-0.9s-0.4-0.9-0.9-0.9c-0.5,0-0.9,0.4-0.9,0.9S25.6,265,26.1,265z"/>
		<path class="st4" d="M32.1,265c0.5,0,0.9-0.4,0.9-0.9s-0.4-0.9-0.9-0.9c-0.5,0-0.9,0.4-0.9,0.9S31.6,265,32.1,265z"/>
		<path class="st4" d="M38.1,265c0.5,0,0.9-0.4,0.9-0.9s-0.4-0.9-0.9-0.9c-0.5,0-0.9,0.4-0.9,0.9S37.6,265,38.1,265z"/>
		<path class="st4" d="M44.1,265c0.5,0,0.9-0.4,0.9-0.9s-0.4-0.9-0.9-0.9c-0.5,0-0.9,0.4-0.9,0.9S43.6,265,44.1,265z"/>
		<path class="st4" d="M50.1,265c0.5,0,0.9-0.4,0.9-0.9s-0.4-0.9-0.9-0.9c-0.5,0-0.9,0.4-0.9,0.9S49.6,265,50.1,265z"/>
		<path class="st4" d="M56.1,265c0.5,0,0.9-0.4,0.9-0.9s-0.4-0.9-0.9-0.9c-0.5,0-0.9,0.4-0.9,0.9S55.6,265,56.1,265z"/>
		<path class="st4" d="M62.1,265c0.5,0,0.9-0.4,0.9-0.9s-0.4-0.9-0.9-0.9c-0.5,0-0.9,0.4-0.9,0.9S61.6,265,62.1,265z"/>
		<path class="st4" d="M68.1,265c0.5,0,0.9-0.4,0.9-0.9s-0.4-0.9-0.9-0.9c-0.5,0-0.9,0.4-0.9,0.9S67.6,265,68.1,265z"/>
		<path class="st4" d="M74.1,265c0.5,0,0.9-0.4,0.9-0.9s-0.4-0.9-0.9-0.9c-0.5,0-0.9,0.4-0.9,0.9S73.6,265,74.1,265z"/>
		<path class="st4" d="M80.1,265c0.5,0,0.9-0.4,0.9-0.9s-0.4-0.9-0.9-0.9c-0.5,0-0.9,0.4-0.9,0.9S79.6,265,80.1,265z"/>
		<path class="st4" d="M86.1,265c0.5,0,0.9-0.4,0.9-0.9s-0.4-0.9-0.9-0.9c-0.5,0-0.9,0.4-0.9,0.9S85.6,265,86.1,265z"/>
		<path class="st4" d="M92.1,265c0.5,0,0.9-0.4,0.9-0.9s-0.4-0.9-0.9-0.9c-0.5,0-0.9,0.4-0.9,0.9S91.6,265,92.1,265z"/>
		<path class="st4" d="M98.1,265c0.5,0,0.9-0.4,0.9-0.9s-0.4-0.9-0.9-0.9c-0.5,0-0.9,0.4-0.9,0.9S97.6,265,98.1,265z"/>
		<path class="st4" d="M104.1,265c0.5,0,0.9-0.4,0.9-0.9s-0.4-0.9-0.9-0.9c-0.5,0-0.9,0.4-0.9,0.9S103.6,265,104.1,265z"/>
		<path class="st4" d="M110.1,265c0.5,0,0.9-0.4,0.9-0.9s-0.4-0.9-0.9-0.9c-0.5,0-0.9,0.4-0.9,0.9S109.6,265,110.1,265z"/>
		<path class="st4" d="M116.1,265c0.5,0,0.9-0.4,0.9-0.9s-0.4-0.9-0.9-0.9c-0.5,0-0.9,0.4-0.9,0.9S115.6,265,116.1,265z"/>
		<path class="st4" d="M122.1,265c0.5,0,0.9-0.4,0.9-0.9s-0.4-0.9-0.9-0.9c-0.5,0-0.9,0.4-0.9,0.9S121.6,265,122.1,265z"/>
		<path class="st4" d="M128.1,265c0.5,0,0.9-0.4,0.9-0.9s-0.4-0.9-0.9-0.9c-0.5,0-0.9,0.4-0.9,0.9S127.6,265,128.1,265z"/>
		<path class="st4" d="M134.1,265c0.5,0,0.9-0.4,0.9-0.9s-0.4-0.9-0.9-0.9c-0.5,0-0.9,0.4-0.9,0.9S133.6,265,134.1,265z"/>
		<path class="st4" d="M140.1,265c0.5,0,0.9-0.4,0.9-0.9s-0.4-0.9-0.9-0.9c-0.5,0-0.9,0.4-0.9,0.9S139.6,265,140.1,265z"/>
		<path class="st4" d="M146.1,265c0.5,0,0.9-0.4,0.9-0.9s-0.4-0.9-0.9-0.9c-0.5,0-0.9,0.4-0.9,0.9S145.6,265,146.1,265z"/>
		<path class="st4" d="M152.1,265c0.5,0,0.9-0.4,0.9-0.9s-0.4-0.9-0.9-0.9c-0.5,0-0.9,0.4-0.9,0.9S151.6,265,152.1,265z"/>
		<path class="st4" d="M158.1,265c0.5,0,0.9-0.4,0.9-0.9s-0.4-0.9-0.9-0.9c-0.5,0-0.9,0.4-0.9,0.9S157.6,265,158.1,265z"/>
		<path class="st4" d="M164.1,265c0.5,0,0.9-0.4,0.9-0.9s-0.4-0.9-0.9-0.9c-0.5,0-0.9,0.4-0.9,0.9S163.6,265,164.1,265z"/>
		<path class="st4" d="M170.1,265c0.5,0,0.9-0.4,0.9-0.9s-0.4-0.9-0.9-0.9c-0.5,0-0.9,0.4-0.9,0.9S169.6,265,170.1,265z"/>
		<path class="st4" d="M176.1,265c0.5,0,0.9-0.4,0.9-0.9s-0.4-0.9-0.9-0.9c-0.5,0-0.9,0.4-0.9,0.9S175.6,265,176.1,265z"/>
		<path class="st4" d="M182.1,265c0.5,0,0.9-0.4,0.9-0.9s-0.4-0.9-0.9-0.9c-0.5,0-0.9,0.4-0.9,0.9S181.6,265,182.1,265z"/>
		<path class="st4" d="M188.1,265c0.5,0,0.9-0.4,0.9-0.9s-0.4-0.9-0.9-0.9c-0.5,0-0.9,0.4-0.9,0.9S187.6,265,188.1,265z"/>
		<path class="st4" d="M194.1,265c0.5,0,0.9-0.4,0.9-0.9s-0.4-0.9-0.9-0.9c-0.5,0-0.9,0.4-0.9,0.9S193.6,265,194.1,265z"/>
		<path class="st4" d="M200.1,265c0.5,0,0.9-0.4,0.9-0.9s-0.4-0.9-0.9-0.9c-0.5,0-0.9,0.4-0.9,0.9S199.6,265,200.1,265z"/>
		<path class="st4" d="M206.1,265c0.5,0,0.9-0.4,0.9-0.9s-0.4-0.9-0.9-0.9c-0.5,0-0.9,0.4-0.9,0.9S205.6,265,206.1,265z"/>
		<path class="st4" d="M212.1,265c0.5,0,0.9-0.4,0.9-0.9s-0.4-0.9-0.9-0.9c-0.5,0-0.9,0.4-0.9,0.9S211.6,265,212.1,265z"/>
		<path class="st4" d="M218.1,265c0.5,0,0.9-0.4,0.9-0.9s-0.4-0.9-0.9-0.9c-0.5,0-0.9,0.4-0.9,0.9S217.6,265,218.1,265z"/>
		<path class="st4" d="M224.1,265c0.5,0,0.9-0.4,0.9-0.9s-0.4-0.9-0.9-0.9c-0.5,0-0.9,0.4-0.9,0.9S223.6,265,224.1,265z"/>
		<path class="st4" d="M230.1,265c0.5,0,0.9-0.4,0.9-0.9s-0.4-0.9-0.9-0.9c-0.5,0-0.9,0.4-0.9,0.9S229.6,265,230.1,265z"/>
		<path class="st4" d="M236.1,265c0.5,0,0.9-0.4,0.9-0.9s-0.4-0.9-0.9-0.9c-0.5,0-0.9,0.4-0.9,0.9S235.6,265,236.1,265z"/>
		<path class="st4" d="M242.1,265c0.5,0,0.9-0.4,0.9-0.9s-0.4-0.9-0.9-0.9c-0.5,0-0.9,0.4-0.9,0.9S241.6,265,242.1,265z"/>
		<path class="st4" d="M248.1,265c0.5,0,0.9-0.4,0.9-0.9s-0.4-0.9-0.9-0.9c-0.5,0-0.9,0.4-0.9,0.9S247.6,265,248.1,265z"/>
		<path class="st4" d="M254.1,265c0.5,0,0.9-0.4,0.9-0.9s-0.4-0.9-0.9-0.9c-0.5,0-0.9,0.4-0.9,0.9S253.6,265,254.1,265z"/>
		<path class="st4" d="M260.1,265c0.5,0,0.9-0.4,0.9-0.9s-0.4-0.9-0.9-0.9c-0.5,0-0.9,0.4-0.9,0.9S259.6,265,260.1,265z"/>
		<path class="st4" d="M266.1,265c0.5,0,0.9-0.4,0.9-0.9s-0.4-0.9-0.9-0.9c-0.5,0-0.9,0.4-0.9,0.9S265.6,265,266.1,265z"/>
		<path class="st4" d="M272.1,265c0.5,0,0.9-0.4,0.9-0.9s-0.4-0.9-0.9-0.9c-0.5,0-0.9,0.4-0.9,0.9S271.6,265,272.1,265z"/>
	</g>
</g>
</svg>
